<svg xmlns="http://www.w3.org/2000/svg" width="16" height="16" viewBox="0 0 16 16">
    <g fill="none" fill-rule="evenodd">
        <g fill="#363636" fill-rule="nonzero">
            <g>
                <g>
                    <path d="M14.713 10.517c-.986 0-1.95-.153-2.866-.455-.446-.154-.953-.036-1.246.264l-1.814 1.37c-2.08-1.111-3.412-2.442-4.508-4.508l1.333-1.77c.335-.336.456-.827.312-1.287-.305-.92-.46-1.886-.46-2.87C5.465.566 4.9 0 4.205 0H1.26C.566 0 0 .566 0 1.261c0 8.112 6.6 14.713 14.713 14.713.695 0 1.26-.566 1.26-1.261v-2.934c0-.696-.565-1.262-1.26-1.262z" transform="translate(-990 -20) translate(990 19.5) translate(0 .5)"/>
                </g>
            </g>
        </g>
    </g>
</svg>
