<svg viewBox="0 0 10 10"  xmlns="http://www.w3.org/2000/svg">
<path fill-rule="evenodd" fill="#006c84" clip-rule="evenodd" d="M1.18353 4.81494C1.1777 4.92525 1.08871 5.01489 0.978256 5.01489H0.196151C0.0856936 5.01489 -0.00426696 4.92506 0.000156445 4.81469C0.106948 2.15014 2.3352 0 5.0398 0C6.35189 0 7.5774 0.505422 8.4699 1.33399L8.7595 1.05194C8.83631 0.975568 8.94867 0.946184 9.0491 0.975568C9.15546 1.00495 9.23235 1.0931 9.25597 1.19886C9.23096 1.0752 9.66363 3.23378 9.67564 3.29301C9.71927 3.52426 9.48516 3.69215 9.32685 3.63973C9.4513 3.6646 7.49698 3.03843 7.43749 3.02656C7.33113 3.00307 7.2484 2.92663 7.21292 2.82677C7.18336 2.72094 7.21292 2.60929 7.28972 2.53293L7.63058 2.18812C6.95087 1.57106 6.02681 1.17536 5.0398 1.17536C2.99121 1.17536 1.28987 2.8021 1.18353 4.81494ZM8.816 5.19003C8.70856 7.20066 7.00765 8.82537 4.95972 8.82537C3.97268 8.82537 3.04859 8.42991 2.36886 7.80731L2.70972 7.46859C2.78653 7.39227 2.81609 7.28069 2.78653 7.17492C2.75105 7.07504 2.66832 6.99872 2.56196 6.97524C2.50246 6.96331 0.548079 6.33757 0.672527 6.36243C0.572014 6.34484 0.471501 6.3742 0.406545 6.44464C0.335586 6.50926 0.306032 6.61495 0.323734 6.70894C0.332258 6.75092 0.552878 7.8407 0.671173 8.42504C0.719493 8.66373 0.750741 8.81808 0.743487 8.78224C0.767037 8.88801 0.843923 8.97611 0.950285 9.0054C1.07366 9.03614 1.17663 8.99898 1.23989 8.92908L1.52366 8.64718C2.41611 9.47535 3.64166 10.0001 4.95972 10.0001C7.66504 10.0001 9.89376 7.86147 9.9996 5.19815C10.004 5.08856 9.91521 4.99904 9.80554 4.99794L9.0234 4.99009C8.91216 4.98897 8.82194 5.07894 8.816 5.19003Z" />
</svg>
