<svg xmlns="http://www.w3.org/2000/svg" width="12" height="17" viewBox="0 0 12 17">
    <g fill="none" fill-rule="evenodd">
        <g fill="#363636" fill-rule="nonzero">
            <g>
                <g>
                    <path d="M5.875 0C2.65 0 .025 2.671.025 5.955c0 1.836.93 4.065 2.761 6.625 1.341 1.873 2.662 3.21 2.718 3.265.102.103.236.155.371.155.13 0 .262-.049.363-.146.056-.054 1.38-1.336 2.723-3.183 1.834-2.522 2.763-4.782 2.763-6.716C11.724 2.67 9.1 0 5.875 0zm0 8.525c-1.577 0-2.86-1.283-2.86-2.86 0-1.576 1.283-2.86 2.86-2.86s2.86 1.284 2.86 2.86c0 1.577-1.283 2.86-2.86 2.86z" transform="translate(-1135 -19) translate(990 19.5) translate(145)"/>
                </g>
            </g>
        </g>
    </g>
</svg>
