<svg xmlns="http://www.w3.org/2000/svg" width="16" height="16" viewBox="0 0 16 16">
    <g fill="none" fill-rule="evenodd">
        <g fill="#363636" fill-rule="nonzero">
            <g>
                <g>
                    <path d="M8 0C3.589 0 0 3.589 0 8s3.589 8 8 8 8-3.589 8-8-3.589-8-8-8zm3.805 12.138c-.13.13-.301.195-.472.195-.17 0-.341-.065-.47-.195L7.528 8.805c-.126-.125-.196-.294-.196-.472V4c0-.369.299-.667.667-.667.368 0 .667.298.667.667v4.057l3.138 3.138c.26.261.26.682 0 .943z" transform="translate(-48 -20) translate(48 19.5) translate(0 .5)"/>
                </g>
            </g>
        </g>
    </g>
</svg>