
<svg version="1.1" id="Layer_1" xmlns="http://www.w3.org/2000/svg" xmlns:xlink="http://www.w3.org/1999/xlink" x="0px" y="0px"
	 viewBox="0 0 512 512" style="enable-background:new 0 0 512 512;" xml:space="preserve" fill="#363636">

		<path d="M437.02,74.98C388.667,26.628,324.38,0,256,0S123.333,26.628,74.98,74.98C26.628,123.333,0,187.62,0,256
			s26.628,132.667,74.98,181.02C123.333,485.372,187.62,512,256,512s132.667-26.628,181.02-74.98
			C485.372,388.667,512,324.38,512,256S485.372,123.333,437.02,74.98z M188.51,30.265c-13.716,12.353-26.312,28.591-37.341,48.411
			c-8.996,16.166-16.613,34.122-22.755,53.404H55.708C85.756,83.69,132.834,46.941,188.51,30.265z M44.398,152.478h78.202
			c-7.384,29.118-11.597,60.682-12.326,93.323H20.633C22.061,212.443,30.454,180.863,44.398,152.478z M20.633,266.199h89.642
			c0.728,32.641,4.943,64.205,12.326,93.323H44.398C30.454,331.137,22.061,299.557,20.633,266.199z M55.708,379.92h72.706
			c6.141,19.283,13.759,37.238,22.755,53.404c11.028,19.819,23.625,36.056,37.341,48.41
			C132.834,465.059,85.756,428.31,55.708,379.92z M245.801,379.92v108.844c-28.614-4.396-55.574-27.203-76.807-65.36
			c-7.383-13.267-13.769-27.864-19.11-43.485h95.917V379.92z M245.801,359.522H143.665c-7.776-28.832-12.226-60.456-12.989-93.323
			h115.125V359.522z M245.801,245.801H130.676c0.764-32.867,5.213-64.491,12.989-93.323h102.136V245.801z M245.801,132.08h-95.917
			c5.341-15.621,11.727-30.218,19.11-43.485c21.233-38.155,48.193-60.963,76.807-65.359V132.08z M456.292,132.08h-72.706
			c-6.141-19.283-13.759-37.238-22.755-53.404c-11.028-19.819-23.625-36.056-37.341-48.411
			C379.166,46.941,426.244,83.69,456.292,132.08z M266.199,132.08V23.236c28.614,4.396,55.574,27.203,76.807,65.36
			c7.383,13.267,13.769,27.864,19.11,43.485L266.199,132.08L266.199,132.08z M266.199,152.478h102.136
			c7.776,28.832,12.226,60.456,12.989,93.323H266.199V152.478z M266.199,266.199h115.125c-0.764,32.867-5.213,64.491-12.989,93.323
			H266.199V266.199z M266.199,488.764V379.92h95.917c-5.341,15.621-11.727,30.218-19.11,43.485
			C321.774,461.561,294.813,484.368,266.199,488.764z M323.49,481.735c13.716-12.353,26.312-28.591,37.341-48.41
			c8.996-16.166,16.614-34.122,22.755-53.404h72.706C426.244,428.31,379.166,465.059,323.49,481.735z M389.399,359.522
			c7.384-29.118,11.598-60.682,12.326-93.323h31.741c5.633,0,10.199-4.566,10.199-10.199c0-5.633-4.566-10.199-10.199-10.199
			h-31.741c-0.728-32.641-4.943-64.205-12.326-93.323h78.202c15.358,31.265,24,66.401,24,103.522s-8.642,72.257-24,103.522H389.399z
			"/>
		<path d="M468.143,245.801h-3.06c-5.633,0-10.199,4.566-10.199,10.199c0,5.633,4.566,10.199,10.199,10.199h3.06
			c5.633,0,10.199-4.566,10.199-10.199C478.343,250.367,473.775,245.801,468.143,245.801z"/>
	
</svg>
