<svg xmlns="http://www.w3.org/2000/svg" width="171" height="157" viewBox="0 0 171 157">
    <g fill="none" fill-rule="evenodd" opacity=".1">
        <g fill="#56575B">
            <g>
                <g transform="translate(-305 -540) translate(305 540.208)">
                    <circle cx="3.391" cy="3.391" r="3.391"/>
                    <circle cx="18.313" cy="3.391" r="3.391"/>
                    <circle cx="33.235" cy="3.391" r="3.391"/>
                    <circle cx="48.157" cy="3.391" r="3.391"/>
                    <circle cx="63.078" cy="3.391" r="3.391"/>
                    <circle cx="78" cy="3.391" r="3.391"/>
                    <circle cx="92.922" cy="3.391" r="3.391"/>
                    <circle cx="107.843" cy="3.391" r="3.391"/>
                    <circle cx="122.765" cy="3.391" r="3.391"/>
                    <circle cx="137.687" cy="3.391" r="3.391"/>
                    <circle cx="152.609" cy="3.391" r="3.391"/>
                    <circle cx="167.53" cy="3.391" r="3.391"/>
                </g>
                <g transform="translate(-305 -540) translate(305 540.208) translate(0 13.565)">
                    <circle cx="3.391" cy="3.391" r="3.391"/>
                    <circle cx="18.313" cy="3.391" r="3.391"/>
                    <circle cx="33.235" cy="3.391" r="3.391"/>
                    <circle cx="48.157" cy="3.391" r="3.391"/>
                    <circle cx="63.078" cy="3.391" r="3.391"/>
                    <circle cx="78" cy="3.391" r="3.391"/>
                    <circle cx="92.922" cy="3.391" r="3.391"/>
                    <circle cx="107.843" cy="3.391" r="3.391"/>
                    <circle cx="122.765" cy="3.391" r="3.391"/>
                    <circle cx="137.687" cy="3.391" r="3.391"/>
                    <circle cx="152.609" cy="3.391" r="3.391"/>
                    <circle cx="167.53" cy="3.391" r="3.391"/>
                </g>
                <g transform="translate(-305 -540) translate(305 540.208) translate(0 27.13)">
                    <circle cx="3.391" cy="3.391" r="3.391"/>
                    <circle cx="18.313" cy="3.391" r="3.391"/>
                    <circle cx="33.235" cy="3.391" r="3.391"/>
                    <circle cx="48.157" cy="3.391" r="3.391"/>
                    <circle cx="63.078" cy="3.391" r="3.391"/>
                    <circle cx="78" cy="3.391" r="3.391"/>
                    <circle cx="92.922" cy="3.391" r="3.391"/>
                    <circle cx="107.843" cy="3.391" r="3.391"/>
                    <circle cx="122.765" cy="3.391" r="3.391"/>
                    <circle cx="137.687" cy="3.391" r="3.391"/>
                    <circle cx="152.609" cy="3.391" r="3.391"/>
                    <circle cx="167.53" cy="3.391" r="3.391"/>
                </g>
                <g transform="translate(-305 -540) translate(305 540.208) translate(0 40.696)">
                    <circle cx="3.391" cy="3.391" r="3.391"/>
                    <circle cx="18.313" cy="3.391" r="3.391"/>
                    <circle cx="33.235" cy="3.391" r="3.391"/>
                    <circle cx="48.157" cy="3.391" r="3.391"/>
                    <circle cx="63.078" cy="3.391" r="3.391"/>
                    <circle cx="78" cy="3.391" r="3.391"/>
                    <circle cx="92.922" cy="3.391" r="3.391"/>
                    <circle cx="107.843" cy="3.391" r="3.391"/>
                    <circle cx="122.765" cy="3.391" r="3.391"/>
                    <circle cx="137.687" cy="3.391" r="3.391"/>
                    <circle cx="152.609" cy="3.391" r="3.391"/>
                    <circle cx="167.53" cy="3.391" r="3.391"/>
                </g>
                <g transform="translate(-305 -540) translate(305 540.208) translate(0 54.26)">
                    <circle cx="3.391" cy="3.391" r="3.391"/>
                    <circle cx="18.313" cy="3.391" r="3.391"/>
                    <circle cx="33.235" cy="3.391" r="3.391"/>
                    <circle cx="48.157" cy="3.391" r="3.391"/>
                    <circle cx="63.078" cy="3.391" r="3.391"/>
                    <circle cx="78" cy="3.391" r="3.391"/>
                    <circle cx="92.922" cy="3.391" r="3.391"/>
                    <circle cx="107.843" cy="3.391" r="3.391"/>
                    <circle cx="122.765" cy="3.391" r="3.391"/>
                    <circle cx="137.687" cy="3.391" r="3.391"/>
                    <circle cx="152.609" cy="3.391" r="3.391"/>
                    <circle cx="167.53" cy="3.391" r="3.391"/>
                </g>
                <g transform="translate(-305 -540) translate(305 540.208) translate(0 67.826)">
                    <circle cx="3.391" cy="3.391" r="3.391"/>
                    <circle cx="18.313" cy="3.391" r="3.391"/>
                    <circle cx="33.235" cy="3.391" r="3.391"/>
                    <circle cx="48.157" cy="3.391" r="3.391"/>
                    <circle cx="63.078" cy="3.391" r="3.391"/>
                    <circle cx="78" cy="3.391" r="3.391"/>
                    <circle cx="92.922" cy="3.391" r="3.391"/>
                    <circle cx="107.843" cy="3.391" r="3.391"/>
                    <circle cx="122.765" cy="3.391" r="3.391"/>
                    <circle cx="137.687" cy="3.391" r="3.391"/>
                    <circle cx="152.609" cy="3.391" r="3.391"/>
                    <circle cx="167.53" cy="3.391" r="3.391"/>
                </g>
                <g transform="translate(-305 -540) translate(305 540.208) translate(0 81.391)">
                    <circle cx="3.391" cy="3.391" r="3.391"/>
                    <circle cx="18.313" cy="3.391" r="3.391"/>
                    <circle cx="33.235" cy="3.391" r="3.391"/>
                    <circle cx="48.157" cy="3.391" r="3.391"/>
                    <circle cx="63.078" cy="3.391" r="3.391"/>
                    <circle cx="78" cy="3.391" r="3.391"/>
                    <circle cx="92.922" cy="3.391" r="3.391"/>
                    <circle cx="107.843" cy="3.391" r="3.391"/>
                    <circle cx="122.765" cy="3.391" r="3.391"/>
                    <circle cx="137.687" cy="3.391" r="3.391"/>
                    <circle cx="152.609" cy="3.391" r="3.391"/>
                    <circle cx="167.53" cy="3.391" r="3.391"/>
                </g>
                <g transform="translate(-305 -540) translate(305 540.208) translate(0 94.957)">
                    <circle cx="3.391" cy="3.391" r="3.391"/>
                    <circle cx="18.313" cy="3.391" r="3.391"/>
                    <circle cx="33.235" cy="3.391" r="3.391"/>
                    <circle cx="48.157" cy="3.391" r="3.391"/>
                    <circle cx="63.078" cy="3.391" r="3.391"/>
                    <circle cx="78" cy="3.391" r="3.391"/>
                    <circle cx="92.922" cy="3.391" r="3.391"/>
                    <circle cx="107.843" cy="3.391" r="3.391"/>
                    <circle cx="122.765" cy="3.391" r="3.391"/>
                    <circle cx="137.687" cy="3.391" r="3.391"/>
                    <circle cx="152.609" cy="3.391" r="3.391"/>
                    <circle cx="167.53" cy="3.391" r="3.391"/>
                </g>
                <g transform="translate(-305 -540) translate(305 540.208) translate(0 108.522)">
                    <circle cx="3.391" cy="3.391" r="3.391"/>
                    <circle cx="18.313" cy="3.391" r="3.391"/>
                    <circle cx="33.235" cy="3.391" r="3.391"/>
                    <circle cx="48.157" cy="3.391" r="3.391"/>
                    <circle cx="63.078" cy="3.391" r="3.391"/>
                    <circle cx="78" cy="3.391" r="3.391"/>
                    <circle cx="92.922" cy="3.391" r="3.391"/>
                    <circle cx="107.843" cy="3.391" r="3.391"/>
                    <circle cx="122.765" cy="3.391" r="3.391"/>
                    <circle cx="137.687" cy="3.391" r="3.391"/>
                    <circle cx="152.609" cy="3.391" r="3.391"/>
                    <circle cx="167.53" cy="3.391" r="3.391"/>
                </g>
                <g transform="translate(-305 -540) translate(305 540.208) translate(0 122.087)">
                    <circle cx="3.391" cy="3.391" r="3.391"/>
                    <circle cx="18.313" cy="3.391" r="3.391"/>
                    <circle cx="33.235" cy="3.391" r="3.391"/>
                    <circle cx="48.157" cy="3.391" r="3.391"/>
                    <circle cx="63.078" cy="3.391" r="3.391"/>
                    <circle cx="78" cy="3.391" r="3.391"/>
                    <circle cx="92.922" cy="3.391" r="3.391"/>
                    <circle cx="107.843" cy="3.391" r="3.391"/>
                    <circle cx="122.765" cy="3.391" r="3.391"/>
                    <circle cx="137.687" cy="3.391" r="3.391"/>
                    <circle cx="152.609" cy="3.391" r="3.391"/>
                    <circle cx="167.53" cy="3.391" r="3.391"/>
                </g>
                <g transform="translate(-305 -540) translate(305 540.208) translate(0 135.652)">
                    <circle cx="3.391" cy="3.391" r="3.391"/>
                    <circle cx="18.313" cy="3.391" r="3.391"/>
                    <circle cx="33.235" cy="3.391" r="3.391"/>
                    <circle cx="48.157" cy="3.391" r="3.391"/>
                    <circle cx="63.078" cy="3.391" r="3.391"/>
                    <circle cx="78" cy="3.391" r="3.391"/>
                    <circle cx="92.922" cy="3.391" r="3.391"/>
                    <circle cx="107.843" cy="3.391" r="3.391"/>
                    <circle cx="122.765" cy="3.391" r="3.391"/>
                    <circle cx="137.687" cy="3.391" r="3.391"/>
                    <circle cx="152.609" cy="3.391" r="3.391"/>
                    <circle cx="167.53" cy="3.391" r="3.391"/>
                </g>
                <g transform="translate(-305 -540) translate(305 540.208) translate(0 149.217)">
                    <circle cx="3.391" cy="3.391" r="3.391"/>
                    <circle cx="18.313" cy="3.391" r="3.391"/>
                    <circle cx="33.235" cy="3.391" r="3.391"/>
                    <circle cx="48.157" cy="3.391" r="3.391"/>
                    <circle cx="63.078" cy="3.391" r="3.391"/>
                    <circle cx="78" cy="3.391" r="3.391"/>
                    <circle cx="92.922" cy="3.391" r="3.391"/>
                    <circle cx="107.843" cy="3.391" r="3.391"/>
                    <circle cx="122.765" cy="3.391" r="3.391"/>
                    <circle cx="137.687" cy="3.391" r="3.391"/>
                    <circle cx="152.609" cy="3.391" r="3.391"/>
                    <circle cx="167.53" cy="3.391" r="3.391"/>
                </g>
            </g>
        </g>
    </g>
</svg>
